<svg id="Capa_1" fill="#ffffff" enable-background="new 0 0 511.931 511.931" height="512" viewBox="0 0 511.931 511.931" width="512" xmlns="http://www.w3.org/2000/svg"><g><path d="m196 330.965h-121c-8.284 0-15 6.716-15 15s6.716 15 15 15h121c8.284 0 15-6.716 15-15s-6.716-15-15-15z"/><path d="m151 285.965c0-8.284-6.716-15-15-15h-121c-8.284 0-15 6.716-15 15s6.716 15 15 15h121c8.284 0 15-6.715 15-15z"/><path d="m196 210.965h-121c-8.284 0-15 6.716-15 15s6.716 15 15 15h121c8.284 0 15-6.716 15-15s-6.716-15-15-15z"/><path d="m509.208 283.023c-6.179-30.894-22.445-60.098-46.306-83.55l8.122-10.153c5.175-6.469 4.126-15.908-2.342-21.083-6.47-5.176-15.909-4.126-21.083 2.343l-7.781 9.726c-23.597-16.461-50.171-26.411-76.909-28.782l-6.112-30.56h11.703c8.284 0 15-6.716 15-15s-6.716-15-15-15h-29.872c-.034 0-.067 0-.101 0h-30.027c-8.284 0-15 6.716-15 15s6.716 15 15 15h17.703l6.245 31.227c-23.655 3.257-44.637 12.976-61.066 28.316l-14.497-12.081c-6.364-5.303-15.821-4.444-21.126 1.92-5.303 6.364-4.443 15.823 1.92 21.126l14.878 12.399c-14.451 24.28-18.994 53.9-12.766 85.034 7.08 35.401 27.402 68.583 57.224 93.434 29.888 24.907 65.93 38.624 101.485 38.624 36.188 0 67.706-14.136 88.749-39.804 21.559-26.295 29.357-61.148 21.959-98.136zm-45.16 79.118c-15.238 18.587-38.517 28.824-65.548 28.824-59.388 0-117.387-48.423-129.292-107.942-5.602-28.009-.011-54.018 15.743-73.234 15.226-18.572 38.48-28.807 65.484-28.823.016 0 .033.002.049.002.017 0 .034-.002.05-.003 29.096.009 57.852 11.644 81.02 30.507 2.012 2.098 38.511 28.806 48.237 77.435 5.602 28.01.011 54.018-15.743 73.234z"/><path d="m417.812 231.826c-6.47-5.176-15.909-4.126-21.083 2.343l-33.941 42.427c-5.175 6.469-4.126 15.908 2.342 21.083 2.766 2.213 6.075 3.287 9.361 3.287 4.4 0 8.76-1.927 11.723-5.63l33.941-42.427c5.174-6.469 4.125-15.908-2.343-21.083z"/></g></svg>